<svg fill="#FFFFFF" xmlns="http://www.w3.org/2000/svg" xmlns:xlink="http://www.w3.org/1999/xlink" version="1.1" x="0px" y="0px" viewBox="0 0 100 100" enable-background="new 0 0 100 100" xml:space="preserve"><path fill-rule="evenodd" clip-rule="evenodd" d="M84.5,51.5h-48c-0.552,0-1-0.447-1-1s0.448-1,1-1h48c0.553,0,1,0.447,1,1  S85.053,51.5,84.5,51.5z M84.5,31.5h-48c-0.552,0-1-0.448-1-1c0-0.553,0.448-1,1-1h48c0.553,0,1,0.447,1,1  C85.5,31.052,85.053,31.5,84.5,31.5z M20.5,75.5c-2.761,0-5-2.238-5-5s2.239-5,5-5s5,2.238,5,5S23.261,75.5,20.5,75.5z M20.5,55.5  c-2.761,0-5-2.238-5-5s2.239-5,5-5s5,2.238,5,5S23.261,55.5,20.5,55.5z M20.5,35.5c-2.761,0-5-2.239-5-5c0-2.762,2.239-5,5-5  s5,2.238,5,5C25.5,33.261,23.261,35.5,20.5,35.5z M36.5,69.5h48c0.553,0,1,0.447,1,1s-0.447,1-1,1h-48c-0.552,0-1-0.447-1-1  S35.948,69.5,36.5,69.5z"></path></svg>