<svg fill="#FFFFFF" xmlns="http://www.w3.org/2000/svg" xmlns:xlink="http://www.w3.org/1999/xlink" xmlns:sketch="http://www.bohemiancoding.com/sketch/ns" viewBox="0 0 100 100" version="1.1" x="0px" y="0px"><title>roundneck</title><desc>Created with Sketch.</desc><g stroke="none" stroke-width="1" fill="none" fill-rule="evenodd" sketch:type="MSPage"><g sketch:type="MSArtboardGroup" fill="#FFFFFF"><path d="M71.4837667,56.1045456 C82.0381887,61.6777342 89,71.2397699 89,82.1002348 C89,99.2999217 11,99.2999217 11,82.1002348 C11,70.9933532 18.281313,61.2444901 29.240161,55.7313816 C29.240161,55.7313816 33.5950534,77.6862965 50.4142259,77.5936971 C67.2333984,77.5010978 71.4837667,56.1045456 71.4837667,56.1045456 Z M50,47.1276596 C62.1502645,47.1276596 72,37.6970618 72,26.0638298 C72,14.4305978 62.1502645,5 50,5 C37.8497355,5 28,14.4305978 28,26.0638298 C28,37.6970618 37.8497355,47.1276596 50,47.1276596 L50,47.1276596 Z" sketch:type="MSShapeGroup"></path></g></g></svg>