<svg fill="#FFFFFF" xmlns="http://www.w3.org/2000/svg" xmlns:xlink="http://www.w3.org/1999/xlink" version="1.1" x="0px" y="0px" viewBox="0 0 100 100" enable-background="new 0 0 100 100" xml:space="preserve"><path d="M77.387,62.504c-6.036,0-11.308,3.284-14.159,8.15L37.769,55.956c0.809-1.94,1.26-4.066,1.26-6.296  c0-2.23-0.451-4.355-1.26-6.296l25.158-14.525c2.772,5.148,8.213,8.657,14.46,8.657c9.052,0,16.415-7.363,16.415-16.415  S86.438,4.666,77.387,4.666s-16.415,7.363-16.415,16.415c0,1.281,0.162,2.523,0.441,3.722L35.625,39.691  c-3.003-3.91-7.711-6.446-13.012-6.446c-9.052,0-16.415,7.363-16.415,16.415s7.363,16.415,16.415,16.415  c5.301,0,10.01-2.536,13.013-6.448l25.94,14.977c-0.377,1.378-0.595,2.82-0.595,4.315c0,9.052,7.363,16.415,16.415,16.415  s16.415-7.363,16.415-16.415S86.438,62.504,77.387,62.504z M77.387,8.918c6.707,0,12.163,5.456,12.163,12.163  s-5.456,12.163-12.163,12.163s-12.163-5.456-12.163-12.163S70.68,8.918,77.387,8.918z M22.613,61.823  c-6.707,0-12.163-5.456-12.163-12.163s5.456-12.163,12.163-12.163s12.163,5.456,12.163,12.163S29.32,61.823,22.613,61.823z   M77.387,91.082c-6.707,0-12.163-5.456-12.163-12.163s5.456-12.163,12.163-12.163S89.55,72.212,89.55,78.919  S84.094,91.082,77.387,91.082z"></path></svg>