<svg fill="#FFFFFF" xmlns:dc="http://purl.org/dc/elements/1.1/" xmlns:cc="http://creativecommons.org/ns#" xmlns:rdf="http://www.w3.org/1999/02/22-rdf-syntax-ns#" xmlns:svg="http://www.w3.org/2000/svg" xmlns="http://www.w3.org/2000/svg" xmlns:sodipodi="http://sodipodi.sourceforge.net/DTD/sodipodi-0.dtd" xmlns:inkscape="http://www.inkscape.org/namespaces/inkscape" viewBox="0 0 64 64.000001" version="1.1" x="0px" y="0px"><g transform="translate(0,-988.3622)"><path style="color:#000000;font-style:normal;font-variant:normal;font-weight:normal;font-stretch:normal;font-size:medium;line-height:normal;font-family:sans-serif;text-indent:0;text-align:start;text-decoration:none;text-decoration-line:none;text-decoration-style:solid;text-decoration-color:#000000;letter-spacing:normal;word-spacing:normal;text-transform:none;direction:ltr;block-progression:tb;writing-mode:lr-tb;baseline-shift:baseline;text-anchor:start;white-space:normal;clip-rule:nonzero;display:inline;overflow:visible;visibility:visible;opacity:1;isolation:auto;mix-blend-mode:normal;color-interpolation:sRGB;color-interpolation-filters:linearRGB;solid-color:#000000;solid-opacity:1;fill:#FFFFFF;fill-opacity:1;fill-rule:nonzero;stroke:none;stroke-width:1.20000005;stroke-linecap:round;stroke-linejoin:round;stroke-miterlimit:4;stroke-dasharray:none;stroke-dashoffset:0;stroke-opacity:1;color-rendering:auto;image-rendering:auto;shape-rendering:auto;text-rendering:auto;enable-background:accumulate" d="M 32 0 C 14.333995 0 0 14.334 0 32 C 0 49.666 14.333995 64 32 64 C 49.666005 64 64 49.666 64 32 C 64 14.334 49.666005 0 32 0 z M 32 1.2011719 C 49.017477 1.2011719 62.800781 14.9825 62.800781 32 C 62.800781 49.0174 49.017477 62.800781 32 62.800781 C 14.982523 62.800781 1.2011719 49.0174 1.2011719 32 C 1.2011719 14.9825 14.982523 1.2011719 32 1.2011719 z M 26.441406 12.548828 C 26.110358 12.549028 25.842051 12.817437 25.841797 13.148438 L 25.841797 14.34375 L 19.371094 14.34375 C 19.040045 14.34385 18.771738 14.612359 18.771484 14.943359 L 18.771484 22.355469 C 18.77098 22.521869 18.839594 22.679069 18.960938 22.792969 L 22.640625 26.226562 C 22.529179 26.542563 22.455075 26.871384 22.455078 27.208984 C 22.455093 27.919984 22.721371 28.591547 23.175781 29.123047 C 23.172081 29.166047 23.162109 29.208953 23.162109 29.251953 L 23.162109 30.398438 C 19.644157 31.394037 17.056641 34.653066 17.056641 38.509766 C 17.056641 43.153566 20.804236 46.933594 25.416016 46.933594 C 30.027795 46.933594 33.773437 43.153566 33.773438 38.509766 C 33.773438 34.653066 31.187417 31.394038 27.669922 30.398438 L 27.669922 29.251953 C 27.669922 29.198953 27.659747 29.148956 27.654297 29.097656 C 27.792986 28.917356 27.912275 28.731875 28.011719 28.546875 C 29.318471 30.398075 31.434758 31.818147 34.617188 31.998047 L 34.617188 44.560547 C 34.617188 44.939847 34.493705 45.224284 34.242188 45.521484 C 33.990668 45.818684 33.598509 46.108353 33.121094 46.376953 C 32.166263 46.914253 30.898747 47.357875 29.839844 47.921875 C 29.644851 48.026475 29.523247 48.229872 29.523438 48.451172 L 29.523438 50.847656 C 29.522586 51.179456 29.791217 51.450972 30.123047 51.451172 L 43.677734 51.451172 C 44.009564 51.450972 44.278196 51.179456 44.277344 50.847656 L 44.277344 48.451172 C 44.276835 48.230572 44.15533 48.028128 43.960938 47.923828 C 42.975451 47.392828 41.716016 46.936659 40.738281 46.380859 C 40.249414 46.102959 39.83719 45.801947 39.572266 45.498047 C 39.307341 45.194247 39.183594 44.911947 39.183594 44.560547 L 39.183594 31.998047 C 43.003416 31.783647 45.330819 29.814028 46.525391 27.423828 C 47.786498 24.900528 47.957031 22.01145 47.957031 20.21875 L 47.957031 13.148438 C 47.956777 12.817437 47.68847 12.549028 47.357422 12.548828 L 26.441406 12.548828 z M 27.041016 13.751953 L 46.755859 13.751953 L 46.755859 20.21875 C 46.755859 21.92855 46.564871 24.660372 45.451172 26.888672 C 44.337473 29.116972 42.413213 30.873659 38.582031 30.880859 C 38.251746 30.880859 37.984626 31.150169 37.984375 31.480469 L 37.984375 44.560547 C 37.984375 45.230647 38.264933 45.822956 38.667969 46.285156 C 39.071005 46.747456 39.589647 47.106375 40.144531 47.421875 C 41.146902 47.991575 42.237741 48.410825 43.078125 48.828125 L 43.078125 50.248047 L 30.722656 50.248047 L 30.722656 48.830078 C 31.619773 48.388878 32.721609 47.978575 33.710938 47.421875 C 34.258325 47.113775 34.765449 46.760875 35.158203 46.296875 C 35.550957 45.832775 35.816406 45.234647 35.816406 44.560547 L 35.816406 31.480469 C 35.816155 31.150169 35.549035 30.882159 35.21875 30.880859 C 31.35694 30.870859 29.456911 29.075247 28.359375 26.810547 C 28.350975 26.793547 28.337335 26.785531 28.328125 26.769531 C 28.300065 26.582831 28.254295 26.404262 28.191406 26.226562 L 31.869141 22.792969 C 31.991205 22.679469 32.060547 22.522169 32.060547 22.355469 L 32.060547 14.943359 C 32.060294 14.611559 31.790795 14.34285 31.458984 14.34375 L 27.041016 14.34375 L 27.041016 13.751953 z M 12.572266 14.472656 C 12.241189 14.482656 11.977221 14.750931 11.982422 15.082031 L 11.982422 16.955078 L 10.109375 16.955078 C 9.3086422 16.955078 9.3086422 18.15625 10.109375 18.15625 L 11.982422 18.15625 L 11.982422 20.03125 C 11.950192 20.86235 13.213869 20.86235 13.181641 20.03125 L 13.181641 18.15625 L 15.054688 18.15625 C 15.85542 18.15625 15.855421 16.955078 15.054688 16.955078 L 13.181641 16.955078 L 13.181641 15.082031 C 13.186941 14.743331 12.910995 14.467356 12.572266 14.472656 z M 44.496094 15.46875 C 44.165017 15.47875 43.901049 15.745072 43.90625 16.076172 L 43.90625 19.53125 C 43.90625 20.85415 43.769967 22.906075 43.023438 24.671875 C 42.276908 26.437675 41.003465 27.905666 38.523438 28.322266 C 37.734372 28.455066 37.93359 29.638659 38.722656 29.505859 C 41.60818 29.021059 43.275276 27.157772 44.128906 25.138672 C 44.982537 23.119572 45.105469 20.93025 45.105469 19.53125 L 45.105469 16.076172 C 45.110769 15.737472 44.834824 15.46335 44.496094 15.46875 z M 19.970703 15.542969 L 20.601562 15.542969 L 20.601562 22.681641 L 19.970703 22.09375 L 19.970703 15.542969 z M 21.802734 15.542969 L 28.960938 15.542969 L 28.960938 23.865234 L 28.003906 24.757812 L 28.003906 18.085938 C 28.003906 17.107737 27.202693 16.296875 26.224609 16.296875 L 24.613281 16.296875 L 24.605469 16.296875 C 23.530241 16.296875 22.826172 17.161738 22.826172 18.085938 L 22.826172 24.757812 L 21.802734 23.802734 L 21.802734 15.542969 z M 30.162109 15.542969 L 30.859375 15.542969 L 30.859375 22.09375 L 30.162109 22.744141 L 30.162109 15.542969 z M 24.605469 17.496094 L 26.224609 17.496094 C 26.553012 17.496094 26.804687 17.746138 26.804688 18.085938 L 26.804688 25.830078 L 24.027344 25.830078 L 24.027344 18.085938 C 24.027344 17.746138 24.277067 17.496094 24.605469 17.496094 z M 14.730469 25.263672 C 14.398664 25.263672 14.133531 25.541247 14.138672 25.873047 L 14.138672 27.746094 L 12.265625 27.746094 C 11.464892 27.746094 11.464892 28.947266 12.265625 28.947266 L 14.138672 28.947266 L 14.138672 30.820312 C 14.138672 31.621112 15.339844 31.621112 15.339844 30.820312 L 15.339844 28.947266 L 17.212891 28.947266 C 18.013624 28.947266 18.013624 27.746094 17.212891 27.746094 L 15.339844 27.746094 L 15.339844 25.873047 C 15.345144 25.534347 15.069159 25.258372 14.730469 25.263672 z M 27.154297 27.017578 C 27.161197 27.081578 27.175791 27.144484 27.175781 27.208984 C 27.175775 27.487484 27.102141 27.752041 26.980469 27.994141 C 26.748877 27.843641 26.475331 27.753906 26.181641 27.753906 L 24.658203 27.753906 L 24.650391 27.753906 C 24.355758 27.753906 24.081665 27.844994 23.849609 27.996094 C 23.727317 27.753694 23.654303 27.487784 23.654297 27.208984 C 23.654296 27.144984 23.668881 27.082731 23.675781 27.019531 C 23.697641 27.019531 23.718044 27.033203 23.740234 27.033203 L 27.089844 27.033203 C 27.112164 27.033203 27.132327 27.020578 27.154297 27.017578 z M 24.650391 28.955078 L 26.181641 28.955078 C 26.349042 28.955078 26.46875 29.0724 26.46875 29.25 L 26.46875 30.154297 C 26.123044 30.110297 25.773469 30.082031 25.416016 30.082031 C 25.057899 30.082031 24.707672 30.110297 24.361328 30.154297 L 24.361328 29.25 C 24.361328 29.0724 24.48299 28.955078 24.650391 28.955078 z M 51.410156 29.580078 C 51.078351 29.580078 50.813218 29.857653 50.818359 30.189453 L 50.818359 32.0625 L 48.945312 32.0625 C 48.144512 32.0625 48.144512 33.263672 48.945312 33.263672 L 50.818359 33.263672 L 50.818359 35.136719 C 50.786139 35.967819 52.049801 35.967819 52.017578 35.136719 L 52.017578 33.263672 L 53.890625 33.263672 C 54.691424 33.263672 54.691424 32.0625 53.890625 32.0625 L 52.017578 32.0625 L 52.017578 30.189453 C 52.022778 29.851553 51.748083 29.575878 51.410156 29.580078 z M 25.416016 31.28125 C 29.373556 31.28125 32.574219 34.506812 32.574219 38.507812 C 32.574219 42.508812 29.373556 45.734375 25.416016 45.734375 C 21.458475 45.734375 18.257813 42.508812 18.257812 38.507812 C 18.257812 34.506813 21.458475 31.28125 25.416016 31.28125 z M 25.359375 32.275391 C 25.151262 32.294391 24.969259 32.420875 24.876953 32.609375 L 23.326172 35.771484 L 19.855469 36.279297 C 19.364777 36.351297 19.170145 36.958741 19.525391 37.306641 L 22.037109 39.765625 L 21.447266 43.242188 C 21.363656 43.733788 21.87554 44.1074 22.314453 43.875 L 25.417969 42.234375 L 28.523438 43.873047 C 28.962771 44.105347 29.475147 43.730081 29.390625 43.238281 L 28.796875 39.763672 L 31.306641 37.300781 C 31.661758 36.952481 31.465607 36.344838 30.974609 36.273438 L 27.503906 35.769531 L 25.949219 32.607422 C 25.839822 32.385022 25.605174 32.253491 25.359375 32.275391 z M 44.935547 33.894531 L 44.935547 33.896484 C 44.60451 33.906484 44.340558 34.174859 44.345703 34.505859 L 44.345703 36.378906 L 42.472656 36.378906 C 41.643005 36.347906 41.643005 37.608825 42.472656 37.578125 L 44.345703 37.578125 L 44.345703 39.453125 C 44.313483 40.284225 45.577145 40.284225 45.544922 39.453125 L 45.544922 37.578125 L 47.417969 37.578125 C 48.218768 37.578125 48.218768 36.376953 47.417969 36.376953 L 45.544922 36.376953 L 45.544922 34.503906 C 45.550222 34.165206 45.274237 33.889231 44.935547 33.894531 z M 25.414062 34.234375 L 26.570312 36.585938 C 26.657583 36.763438 26.826547 36.885663 27.021484 36.914062 L 29.603516 37.289062 L 27.736328 39.123047 C 27.595325 39.261447 27.530946 39.459097 27.564453 39.654297 L 28.005859 42.240234 L 25.695312 41.021484 C 25.52101 40.929484 25.312944 40.929484 25.138672 41.021484 L 22.830078 42.244141 L 23.269531 39.658203 C 23.302941 39.463003 23.238711 39.2633 23.097656 39.125 L 21.228516 37.294922 L 23.810547 36.916016 C 24.005347 36.888016 24.172604 36.765391 24.259766 36.587891 L 25.414062 34.234375 z " transform="translate(0,988.3622)"></path></g></svg>